**ABCDEFGHIJKLMNOPQRSTUVWXYZabcdefghijklmnopqrstuvwxyz**************************
**PARASOLID !"#$%&'()*+,-./:;<=>?@[\]^_`{|}~0123456789**************************
**PART1;
MC=AMD64;
MC_MODEL=Intel64 Family 6 Model 60 Stepping 3, GenuineIntel;
MC_ID=unknown;
OS=Windows_NT;
OS_RELEASE=unknown;
FRU=Parasolid Version 29.0, build 190,  9-30-2016;
APPL=SOLIDWORKS 2017-2016327;
SITE=;
USER=unknown;
FORMAT=text;
GUISE=transmit;
KEY=RS-CCB-2017-5 [Cast Aluminum Corner Bracket];
FILE=RS-CCB-2017-5 [Cast Aluminum Corner Bracket].x_t;
DATE=Wed Jan 25 21:02:12 2017;
**PART2;
SCH=SCH_2900190_28101;
USFLD_SIZE=0;
**PART3;
**END_OF_HEADER*****************************************************************
T51 : TRANSMIT FILE created by modeller version 290019023 SCH_2900190_28101_1300
6203 0 12 33 CCCCCCI4 mesh1006 0 I8 polyline1008 0 CCCCCCCDI5 owner1040 0 CCCCCC
I13 boundary_mesh1006 0 I17 boundary_polyline1008 0 CCCA16 index_map_offset0 0 1
 dA9 index_map82 0 A17 node_id_index_map82 0 A20 schema_embedding_map82 0 A5 chi
ld12 0 A14 lowest_node_id0 0 1 dZ1 1602 2 3 0 0 0 0 0 0 1e3 1e-8 0 4 0 1 0 1 1 5
 6 7 8 0 0 9 10 11 0 0 0 0 0 0 81 255 2 2 1285 12 1 0 0 0 0 13 0 70 11 CI9 list_
type0 0 1 uI10 notransmit0 0 1 lCCCDCCDI12 finger_index0 0 1 dI12 finger_block10
12 0 CZ3 0 4 T1 0 0 3 20 1 14 14 13 255 5 94 0 1 0 15 0 0 16 0 50 255 6 89 0 17
 18 0 0 +.0085 -.01 .02 -1 0 0 0 0 1 30 255 7 93 0 10 19 0 0 +.0085 .01 .02 0 0
 -1 29 255 8 1155 0 11 20 0 .001 .007 0 19 8 CCCCCCCA5 owner12 0 Z9 28 0 1 16 0
 21 V0 16 255 10 316 0 ?22 0 23 7 0 0 1 18 255 11 1153 0 24 0 25 8 ?1 17 255 24
 0 26 27 28 11 29 30 0 31 +18 25 1054 0 32 11 33 20 ?1 17 32 0 34 35 36 25 37 38
 0 39 -18 33 1051 0 35 25 40 41 ?1 29 20 1056 0 25 41 8 -.001 -.009 0 29 41 1053
 0 33 42 20 .001 -.009 0 29 42 1047 0 40 43 41 -.001 -.007 0 18 40 1045 0 36 33
 44 42 ?1 29 43 923 0 44 45 42 -.001 -.01 .001 18 44 921 0 46 40 47 43 ?1 29 45
 919 0 47 48 43 .001 -.01 .001 18 47 917 0 49 44 50 45 ?1 29 48 912 0 50 51 45 .
001 -.01 .003 18 50 910 0 52 47 53 48 ?1 29 51 814 0 53 54 48 -.001 -.01 .017 18
 53 812 0 55 50 56 51 ?1 29 54 810 0 56 57 51 .001 -.01 .017 18 56 808 0 58 53 5
9 54 ?1 29 57 803 0 59 60 54 .001 -.01 .019 18 59 801 0 61 56 62 57 ?1 29 60 674
 0 62 63 57 .003 .002 0 18 62 672 0 64 59 65 60 ?1 29 63 657 0 65 66 60 .003 -.0
03 .002 18 65 655 0 67 62 68 63 ?1 29 66 536 0 68 69 63 .003 -.01 .007 18 68 534
 0 70 65 71 66 ?1 29 69 516 0 71 72 66 .003 -.008 .012 18 71 514 0 73 68 74 69 ?
1 29 72 152 0 74 75 69 -.0065 -.008 .02 18 74 150 0 76 71 77 72 ?1 29 75 70 0 78
 79 72 .0085 -.01 0 18 78 61 0 80 81 82 75 ?1 29 79 71 0 82 83 75 -.0085 -.01 0
 18 82 62 0 84 78 85 79 ?1 29 83 72 0 85 86 79 -.0085 .01 0 18 85 63 0 87 82 88
 83 ?1 29 86 73 0 88 89 83 .0085 .01 0 18 88 64 0 22 85 90 86 ?1 29 89 27 0 77 9
1 86 .0085 -.01 .02 18 77 25 0 92 74 81 89 ?1 29 91 24 0 81 93 89 -.0085 -.01 .0
2 18 81 22 0 94 77 78 91 ?1 29 93 256 0 95 96 91 .0065 .01 .002 18 95 210 0 97 9
8 99 93 ?1 29 96 259 0 90 100 93 -.0065 -.008 .002 18 90 205 0 101 88 98 96 ?1 2
9 100 260 0 98 102 96 .0065 -.008 .002 18 98 207 0 103 90 95 100 ?1 29 102 468 0
 99 104 100 .0085 .01 .002 18 99 374 0 105 95 106 102 ?1 29 104 470 0 106 107 10
2 -.0065 .01 .002 18 106 376 0 108 99 109 104 ?1 29 107 474 0 109 110 104 .0085
 -.008 .02 18 109 380 0 111 106 112 107 ?1 29 110 475 0 112 113 107 .0065 -.008
 .02 18 112 388 0 114 109 115 110 ?1 29 113 477 0 115 116 110 -.0085 .01 .002 18
 115 377 0 117 112 118 113 ?1 29 116 478 0 118 119 113 -.0085 -.008 .02 18 118 3
82 0 120 115 121 116 ?1 29 119 624 0 121 122 116 -.003 -.01 .012 18 121 574 0 12
3 118 124 119 ?1 29 122 625 0 124 125 119 -.003 -.01 .007 18 124 576 0 126 121 1
27 122 ?1 29 125 627 0 127 128 122 -.003 -.008 .012 18 127 575 0 129 124 130 125
 ?1 29 128 628 0 130 131 125 -.003 -.008 .007 18 130 577 0 132 127 133 128 ?1 29
 131 629 0 133 134 128 .003 -.008 .007 18 133 579 0 135 130 136 131 ?1 29 134 63
1 0 136 137 131 .003 -.01 .012 18 136 580 0 138 133 139 134 ?1 29 137 766 0 139
 140 134 -.003 -.003 .002 18 139 715 0 141 136 142 137 ?1 29 140 767 0 142 143 1
37 -.003 .002 .002 18 142 716 0 144 139 145 140 ?1 29 143 768 0 145 146 140 .003
 .002 .002 18 145 717 0 147 142 148 143 ?1 29 146 770 0 148 149 143 -.003 -.003
 0 18 148 718 0 150 145 151 146 ?1 29 149 771 0 151 152 146 -.003 .002 0 18 151
 719 0 153 148 154 149 ?1 29 152 772 0 154 155 149 .003 -.003 0 18 154 721 0 156
 151 157 152 ?1 29 155 901 0 158 159 152 -.001 -.01 .019 18 158 854 0 160 161 16
2 155 ?1 29 159 905 0 157 163 155 -.001 -.011 .019 18 157 857 0 164 154 165 159
 ?1 29 163 906 0 165 166 159 .001 -.011 .019 18 165 856 0 167 157 168 163 ?1 29
 166 907 0 168 169 163 .001 -.011 .017 18 168 855 0 170 165 161 166 ?1 29 169 90
8 0 161 171 166 -.001 -.011 .017 18 161 852 0 172 168 158 169 ?1 29 171 1010 0 1
73 174 169 -.001 -.01 .003 18 173 963 0 175 176 177 171 ?1 29 174 1014 0 162 178
 171 -.001 -.011 .003 18 162 966 0 179 158 180 174 ?1 29 178 1015 0 180 181 174
 .001 -.011 .003 18 180 965 0 182 162 183 178 ?1 29 181 1016 0 183 184 178 .001
 -.011 .001 18 183 964 0 185 180 176 181 ?1 29 184 1017 0 176 186 181 -.001 -.01
1 .001 18 176 961 0 187 183 173 184 ?1 29 186 1143 0 188 189 184 .001 -.007 0 18
 188 1091 0 190 191 192 186 ?1 29 189 1145 0 177 193 186 -.001 -.009 -.001 18 17
7 1097 0 194 173 195 189 ?1 29 193 1146 0 195 196 189 .001 -.009 -.001 18 195 10
96 0 197 177 198 193 ?1 29 196 1147 0 198 199 193 .001 -.007 -.001 18 198 1095 0
 200 195 191 196 ?1 29 199 1148 0 191 201 196 -.001 -.007 -.001 18 191 1092 0 20
2 198 188 199 ?1 29 201 1250 0 203 204 199 -.001 .007 0 18 203 1203 0 27 205 206
 201 ?1 29 204 1252 0 206 207 201 .001 .009 0 18 206 1200 0 208 203 209 204 ?1 2
9 207 1253 0 209 210 204 -.001 .009 0 18 209 1207 0 211 206 0 207 ?1 29 210 1254
 0 192 212 207 -.001 .007 -.001 18 192 1206 0 213 188 214 210 ?1 29 212 1255 0 2
14 215 210 .001 .007 -.001 18 214 1205 0 216 192 217 212 ?1 29 215 1256 0 217 21
8 212 .001 .009 -.001 18 217 1204 0 219 214 205 215 ?1 29 218 1257 0 205 0 215 -
.001 .009 -.001 18 205 1201 0 220 217 203 218 ?1 17 220 0 221 211 222 205 219 22
3 0 224 -15 255 221 1215 0 208 225 0 17 211 0 221 208 220 209 226 227 0 228 +17
 222 0 221 220 208 217 229 230 0 231 -17 219 0 232 216 224 217 220 223 0 222 +16
 223 1191 0 ?219 233 234 235 0 0 1 17 224 0 232 219 213 205 236 234 0 226 +15 23
2 1226 0 224 237 0 17 213 0 232 224 216 192 28 238 0 239 +17 236 0 240 241 226 1
92 224 234 0 0 -16 234 1188 0 ?224 223 242 243 0 0 1 17 226 0 240 236 228 205 21
1 227 0 0 -15 240 1211 0 228 244 0 17 228 0 240 226 241 209 245 246 0 247 +16 22
7 1179 0 ?211 38 230 248 0 0 1 16 38 1063 0 ?37 249 227 250 0 0 1 16 230 1183 0
 ?229 227 30 251 0 0 1 30 248 1238 0 227 251 252 0 +-.001 .009 -.001 0 0 1 30 25
1 1239 0 230 253 248 0 +.001 .009 -.001 0 0 1 31 255 252 1140 0 254 248 255 0 +-
.001 -.008 -.001 0 0 -1 -1 0 0 .001 16 254 1079 0 ?256 257 258 252 0 0 1 30 255
 1139 0 257 252 259 0 +-.001 -.007 -.001 1 0 0 16 257 1082 0 ?200 260 254 255 0
 0 1 31 259 1138 0 260 255 261 0 +.001 -.008 -.001 0 0 -1 -1 0 0 .001 16 260 108
5 0 ?197 262 257 259 0 0 1 30 261 1137 0 262 259 250 0 +-.001 -.009 -.001 -1 0 0
 16 262 1088 0 ?194 263 260 261 0 0 1 31 250 1136 0 38 261 264 0 +-.001 -.008 0
 0 0 -1 -1 0 0 .001 30 264 1135 0 249 250 265 0 +-.001 -.007 0 1 0 0 16 249 1067
 0 ?266 267 38 264 0 0 1 31 265 1134 0 267 264 268 0 +.001 -.008 0 0 0 -1 -1 0 0
 .001 16 267 1071 0 ?269 258 249 265 0 0 1 30 268 1133 0 258 265 270 0 +-.001 -.
009 0 -1 0 0 16 258 1075 0 ?39 254 267 268 0 0 1 30 270 1132 0 263 268 271 0 +-.
001 -.009 -.001 0 0 1 16 263 1066 0 ?272 273 262 270 0 0 1 30 271 1131 0 273 270
 274 0 +.001 -.009 -.001 0 0 1 16 273 1078 0 ?275 276 263 271 0 0 1 30 274 1130
 0 276 271 277 0 +.001 -.007 -.001 0 0 1 16 276 1074 0 ?278 279 273 274 0 0 1 30
 277 1129 0 279 274 280 0 +-.001 -.007 -.001 0 0 1 16 279 1070 0 ?281 282 276 27
7 0 0 1 31 280 1009 0 283 277 284 0 +-.001 -.011 .002 0 -1 0 0 0 -1 .001 16 283
 948 0 ?285 286 287 280 0 0 1 30 284 1008 0 286 280 288 0 +-.001 -.011 .001 1 0
 216840434497101e-30 16 286 951 0 ?185 289 283 284 0 0 1 31 288 1007 0 289 284 2
90 0 +.001 -.011 .002 0 -1 0 0 0 -1 .001 16 289 954 0 ?182 291 286 288 0 0 1 30
 290 1006 0 291 288 292 0 +-.001 -.011 .003 -1 0 -216840434497101e-30 16 291 957
 0 ?179 293 289 290 0 0 1 31 292 1005 0 282 290 294 0 +-.001 -.01 .002 0 -1 0 0
 0 -1 .001 16 282 932 0 ?295 296 279 292 0 0 1 30 294 1004 0 296 292 297 0 +-.00
1 -.01 .001 1 0 216840434497101e-30 16 296 936 0 ?298 299 282 294 0 0 1 31 297 1
003 0 299 294 300 0 +.001 -.01 .002 0 -1 0 0 0 -1 .001 16 299 940 0 ?301 287 296
 297 0 0 1 30 300 1002 0 287 297 302 0 +-.001 -.01 .003 -1 0 -216840434497101e-3
0 16 287 944 0 ?303 283 299 300 0 0 1 30 302 1001 0 293 300 304 0 +-.001 -.011 .
003 0 1 0 16 293 935 0 ?305 306 291 302 0 0 1 30 304 1000 0 306 302 307 0 +.001
 -.011 .003 0 1 0 16 306 947 0 ?308 309 293 304 0 0 1 30 307 999 0 309 304 310 0
 +.001 -.011 .001 0 1 0 16 309 943 0 ?311 312 306 307 0 0 1 30 310 998 0 312 307
 313 0 +-.001 -.011 .001 0 1 0 16 312 939 0 ?314 315 309 310 0 0 1 31 313 900 0
 316 310 317 0 +-.001 -.011 .018 0 -1 0 0 0 -1 .001 16 316 839 0 ?318 319 320 31
3 0 0 1 30 317 899 0 319 313 321 0 +-.001 -.011 .017 1 0 0 16 319 842 0 ?170 322
 316 317 0 0 1 31 321 898 0 322 317 323 0 +.001 -.011 .018 0 -1 0 0 0 -1 .001 16
 322 845 0 ?167 324 319 321 0 0 1 30 323 897 0 324 321 325 0 +-.001 -.011 .019 -
1 0 0 16 324 848 0 ?164 326 322 323 0 0 1 31 325 896 0 315 323 327 0 +-.001 -.01
 .018 0 -1 0 0 0 -1 .001 16 315 823 0 ?328 329 312 325 0 0 1 30 327 895 0 329 32
5 330 0 +-.001 -.01 .017 1 0 0 16 329 827 0 ?331 332 315 327 0 0 1 31 330 894 0
 332 327 333 0 +.001 -.01 .018 0 -1 0 0 0 -1 .001 16 332 831 0 ?334 320 329 330
 0 0 1 30 333 893 0 320 330 335 0 +-.001 -.01 .019 -1 0 0 16 320 835 0 ?336 316
 332 333 0 0 1 30 335 892 0 326 333 337 0 +-.001 -.011 .019 0 1 0 16 326 826 0 ?
338 339 324 335 0 0 1 30 337 891 0 339 335 340 0 +.001 -.011 .019 0 1 0 16 339 8
38 0 ?341 342 326 337 0 0 1 30 340 890 0 342 337 343 0 +.001 -.011 .017 0 1 0 16
 342 834 0 ?344 345 339 340 0 0 1 30 343 889 0 345 340 346 0 +-.001 -.011 .017 0
 1 0 16 345 830 0 ?347 348 342 343 0 0 1 31 346 764 0 348 343 349 0 -0 .002 0 0
 0 -1 -1 0 0 .003 16 348 698 0 ?350 351 345 346 0 0 1 30 349 763 0 351 346 352 0
 +-.003 -.003 0 0 -1 0 16 351 696 0 ?353 354 348 349 0 0 1 31 352 762 0 354 349
 355 0 -0 -.003 0 0 0 -1 -1 0 0 .003 16 354 694 0 ?356 357 351 352 0 0 1 31 355
 761 0 357 352 358 0 +0 -.003 .002 0 0 1 1 0 0 .003 16 357 702 0 ?67 359 354 355
 0 0 1 30 358 760 0 359 355 360 0 +.003 -.003 .002 0 1 0 16 359 705 0 ?361 362 3
57 358 0 0 1 31 360 759 0 362 358 363 0 +0 .002 .002 0 0 1 1 0 0 .003 16 362 708
 0 ?364 365 359 360 0 0 1 30 363 758 0 365 360 366 0 +-.003 -.003 .002 0 -1 0 16
 365 711 0 ?367 368 362 363 0 0 1 30 366 757 0 369 363 370 0 +-.003 -.003 -10000
00000000132e-21 0 0 1 16 369 697 0 ?141 371 372 366 0 0 1 30 370 756 0 372 366 3
73 0 +-.003 .002 -1000000000000132e-21 0 0 1 16 372 699 0 ?144 369 374 370 0 0 1
 30 373 755 0 374 370 375 0 +.003 .002 -1000000000000132e-21 0 0 1 16 374 701 0
 ?147 372 368 373 0 0 1 30 375 754 0 368 373 376 0 +.003 -.003 -1000000000000132
e-21 0 0 1 16 368 695 0 ?377 374 365 375 0 0 1 30 376 753 0 371 375 378 0 +.003
 -.003 0 0 1 0 16 371 700 0 ?379 380 369 376 0 0 1 31 378 623 0 380 376 381 0 -1
925929944387235e-49 -.01 .007 0 1 0 0 0 1 .003 16 380 572 0 ?70 382 371 378 0 0
 1 30 381 622 0 382 378 383 0 +-.003 -.01 .012 0 0 -1 16 382 571 0 ?384 385 380
 381 0 0 1 31 383 621 0 385 381 386 0 -770371977754894e-48 -.01 .012 0 1 0 0 0 1
 .003 16 385 570 0 ?387 388 382 383 0 0 1 31 386 620 0 388 383 389 0 +7703719777
54894e-48 -.008 .012 0 1 0 0 0 1 .003 16 388 557 0 ?73 390 385 386 0 0 1 30 389
 619 0 390 386 391 0 +.003 -.008 .012 0 0 -1 16 390 560 0 ?392 393 388 389 0 0 1
 31 391 618 0 393 389 394 0 +1925929944387235e-49 -.008 .007 0 1 0 0 0 1 .003 16
 393 563 0 ?395 396 390 391 0 0 1 30 394 617 0 396 391 397 0 +-.003 -.008 .012 0
 0 1 16 396 566 0 ?398 399 393 394 0 0 1 30 397 616 0 400 394 401 0 +-.003 -.010
001 .012 0 1 0 16 400 554 0 ?129 402 403 397 0 0 1 30 401 615 0 403 397 404 0 +-
.003 -.010001 .007 0 1 0 16 403 555 0 ?132 400 405 401 0 0 1 30 404 614 0 405 40
1 406 0 +.003 -.010001 .007 0 1 0 16 405 556 0 ?135 403 399 404 0 0 1 30 406 613
 0 399 404 407 0 +.003 -.010001 .012 0 1 0 16 399 553 0 ?408 405 396 406 0 0 1 3
0 407 612 0 402 406 409 0 +.003 -.01 .012 0 0 1 16 402 569 0 ?410 411 400 407 0
 0 1 30 409 462 0 411 407 412 0 +-.0085 .01 .002 0 .707106781186548 -.7071067811
86548 16 411 349 0 ?413 414 402 409 0 0 1 30 412 461 0 415 409 416 0 +-.0085 .01
 .002 1 0 0 16 415 347 0 ?417 418 419 412 419 419 1 30 416 460 0 420 412 421 0 +
-.0085 -.008 .02 1 0 0 16 420 356 0 ?76 419 414 416 414 414 1 30 421 455 0 418 4
16 422 0 +.0065 -.008 .02 0 .707106781186548 -.707106781186548 16 418 346 0 ?423
 424 415 421 0 0 1 30 422 454 0 424 421 425 0 +-.0065 -.008 .02 0 -.707106781186
548 .707106781186548 16 424 348 0 ?426 427 418 422 0 0 1 30 425 453 0 427 422 42
8 0 +.0085 -.009 .021 0 -.707106781186548 .707106781186548 16 427 345 0 ?429 430
 424 425 0 0 1 30 428 254 0 431 425 432 0 +-.0065 -.008 .02 0 0 1 16 431 177 0 ?
433 434 430 428 0 0 1 30 432 253 0 434 428 435 0 +-.0065 -.008 .02 1 0 0 16 434
 189 0 ?436 437 431 432 0 0 1 30 435 252 0 437 432 438 0 +.0065 -.008 .02 0 0 -1
 16 437 185 0 ?439 440 434 435 0 0 1 30 438 251 0 440 435 441 0 +-.0065 -.008 .0
02 -1 0 0 16 440 181 0 ?442 443 437 438 0 0 1 30 441 247 0 430 438 444 0 +-.0065
 .01 .002 -1 0 0 16 430 202 0 ?445 431 427 441 0 0 1 30 444 246 0 446 441 447 0
 +-.0065 -.008 .002 0 1 0 16 446 184 0 ?448 449 443 444 0 0 1 30 447 245 0 443 4
44 450 0 +.0065 -.008 .002 0 1 0 16 443 188 0 ?451 446 440 447 0 0 1 30 450 5 0
 452 447 453 0 +.0085 -.01 .02 0 1 0 16 452 4 0 ?454 455 456 450 0 0 1 30 453 11
 0 455 450 457 0 +-.0085 -.01 .02 0 -1 0 16 455 290 0 ?94 458 452 453 0 0 1 30 4
57 14 0 458 453 459 0 +-.0085 -.01 .02 1 0 0 16 458 13 0 ?92 460 455 457 0 0 1 3
0 459 69 0 449 457 461 0 +.0085 -.01 0 0 1 0 16 449 57 0 ?462 463 446 459 0 0 1
 30 461 68 0 463 459 464 0 +-.0085 .01 0 -1 0 0 16 463 53 0 ?465 466 449 461 0 0
 1 30 464 67 0 466 461 467 0 +-.0085 -.01 0 0 -1 0 16 466 49 0 ?84 456 463 464 0
 0 1 30 467 66 0 456 464 468 0 +-.0085 -.01 0 1 0 0 16 456 45 0 ?80 452 466 467
 0 0 1 30 468 90 0 460 467 469 0 +.0085 -.01 .02 0 0 -1 16 460 74 0 ?470 471 458
 468 0 0 1 30 469 91 0 471 468 19 0 +-.0085 -.01 .02 0 0 -1 16 471 75 0 ?472 23
 460 469 0 0 1 30 19 92 0 23 469 7 0 +-.0085 .01 .02 0 0 -1 16 23 307 0 ?87 10 4
71 19 0 0 1 17 87 0 473 84 413 85 474 23 0 465 +15 473 80 0 475 476 0 17 84 0 47
3 477 87 82 478 466 0 472 +17 413 0 473 87 475 115 120 411 0 474 +17 474 0 479 4
17 465 115 87 23 0 0 -17 465 0 479 474 22 85 480 463 0 478 +15 479 82 0 474 481
 0 17 22 0 479 465 482 88 483 10 0 480 +17 480 0 484 485 478 88 465 463 0 462 -1
7 478 0 484 480 486 85 84 466 0 0 -15 484 44 0 485 15 487 17 486 0 484 478 485 8
2 80 456 0 0 -17 485 0 484 486 480 78 462 449 0 0 -17 80 0 488 489 472 78 486 45
6 0 470 +15 488 78 0 80 490 491 17 489 0 488 492 80 77 470 460 0 493 -17 472 0 4
88 80 492 82 477 471 0 486 +17 470 0 494 462 493 78 489 460 0 485 +15 494 84 0 4
83 17 0 17 462 0 494 483 470 88 485 449 0 0 +17 493 0 494 470 429 77 454 452 0 0
 -17 429 0 494 493 483 109 105 427 0 454 +17 454 0 495 496 92 109 493 452 0 0 +1
5 495 3 0 454 497 0 17 496 0 495 498 454 112 111 414 0 499 -17 92 0 495 454 94 7
7 492 458 0 489 +17 94 0 495 92 500 81 475 455 0 477 +17 492 0 488 472 489 81 92
 458 0 0 -17 500 0 495 94 498 118 76 420 0 475 -17 475 0 473 413 477 118 94 455
 0 0 -17 477 0 473 475 84 81 472 471 0 492 -17 498 0 495 500 496 74 436 434 0 0
 -17 76 0 501 108 120 74 500 420 0 426 +15 501 408 0 117 502 0 17 108 0 501 117
 76 106 426 424 0 417 -17 120 0 501 76 117 118 413 411 0 500 -17 426 0 503 504 4
48 74 108 424 0 433 +15 503 216 0 448 505 0 17 504 0 503 448 426 90 433 431 0 44
2 -17 448 0 503 426 504 106 101 446 0 445 +17 433 0 506 436 442 74 504 431 0 498
 +15 506 231 0 433 507 0 17 436 0 506 439 433 112 498 434 0 0 +17 442 0 506 433
 439 90 508 440 0 0 +17 439 0 506 442 436 98 499 437 0 508 +17 508 0 509 451 101
 98 442 440 0 0 -15 509 220 0 445 510 0 17 451 0 509 445 508 95 103 443 0 511 +1
7 101 0 509 508 445 90 448 446 0 504 -17 445 0 509 101 451 106 511 430 0 0 +17 5
11 0 479 482 417 95 445 430 0 0 -17 482 0 479 22 511 99 97 419 0 483 +17 417 0 4
79 511 474 106 117 415 0 448 +17 117 0 501 120 108 115 417 415 0 413 -17 97 0 51
2 114 105 95 482 419 0 423 -16 419 344 0 ?482 415 420 412 415 415 1 17 483 0 494
 429 462 99 22 10 0 0 -15 512 404 0 97 513 0 17 114 0 512 111 97 112 423 418 0 4
96 -17 105 0 512 97 111 99 429 427 0 482 -17 423 0 514 103 499 95 114 418 0 451
 +15 514 224 0 499 515 0 17 103 0 514 499 423 98 451 443 0 439 -17 499 0 514 423
 103 112 439 437 0 436 -14 255 515 221 516 ?507 510 514 5 517 -0 0 507 510 21 81
 1 516 1563 518 515 519 0 0 520 521 14 507 229 520 ?513 515 522 5 523 -0 0 513 5
15 21 14 510 217 524 ?515 505 525 5 526 -0 0 515 505 21 50 517 239 0 515 526 527
 0 +.0065 -.008 .02 1 0 0 0 0 -1 13 21 29 0 0 0 0 0 0 9 15 14 15 1168 528 ?490 0
 34 5 529 +0 0 490 0 21 81 1 528 1566 518 15 530 0 524 531 532 14 490 928 531 ?1
7 15 533 5 534 -0 0 17 15 21 15 34 1058 0 32 15 535 50 529 65 0 15 536 534 0 +0
 0 0 0 0 -1 -1 0 0 50 536 2 0 497 527 529 0 +0 0 .02 0 0 -1 -1 0 0 50 534 86 0 4
90 529 537 0 +-.0085 -.01 .02 0 1 0 0 0 1 50 537 87 0 476 534 18 0 +-.0085 -.01
 .02 1 0 0 0 0 -1 14 476 81 538 ?497 481 473 5 537 -0 0 497 481 21 50 18 88 0 48
1 537 6 0 +-.0085 .01 .02 0 -1 0 0 0 -1 14 481 83 539 ?476 17 479 5 18 -0 0 476
 17 21 81 1 539 1569 518 481 540 0 538 541 542 14 17 85 541 ?481 490 494 5 6 -0
 0 481 490 21 81 1 541 1570 518 17 543 0 539 544 545 80 255 1 518 546 547 9000 1
 1 1 1 1 1 1 1 0 FFFFTFTFFFFFFF1 81 1 543 1443 548 17 0 541 549 540 550 81 1 544
 1571 518 551 552 0 541 553 554 82 255 1 545 200474737 14 551 859 544 ?555 556 5
57 5 558 -0 0 555 556 21 81 1 552 1461 548 551 0 544 559 560 561 81 1 553 1572 5
18 555 560 0 544 562 563 82 1 554 -771620735 14 555 863 553 ?564 551 565 5 566 -
0 0 564 551 21 81 1 560 1462 548 555 0 553 552 567 568 81 1 562 1573 518 564 567
 0 553 569 570 82 1 563 -771882879 14 564 867 562 ?571 555 572 5 573 -0 0 571 55
5 21 81 1 567 1463 548 564 0 562 560 574 575 81 1 569 1574 518 571 574 0 562 576
 577 82 1 570 -772145023 14 571 871 569 ?578 564 579 5 580 -0 0 578 564 21 81 1
 574 1464 548 571 0 569 567 581 582 81 1 576 1575 518 578 581 0 569 583 584 82 1
 577 -772407167 14 578 875 576 ?585 571 586 5 587 +0 0 585 571 21 81 1 581 1465
 548 578 0 576 574 588 589 81 1 583 1576 518 585 588 0 576 590 591 82 1 584 -778
960767 14 585 968 583 ?592 578 593 5 594 -0 0 592 578 21 81 1 588 1466 548 585 0
 583 581 595 596 81 1 590 1577 518 592 595 0 583 597 598 82 1 591 -759889791 14
 592 972 590 ?599 585 600 5 601 -0 0 599 585 21 81 1 595 1467 548 592 0 590 588
 602 603 81 1 597 1578 518 599 602 0 590 604 605 82 1 598 -760151935 14 599 976
 597 ?606 592 607 5 608 -0 0 606 592 21 81 1 602 1468 548 599 0 597 595 609 610
 81 1 604 1579 518 606 609 0 597 611 612 82 1 605 -760414079 14 606 980 604 ?613
 599 614 5 615 -0 0 613 599 21 81 1 609 1469 548 606 0 604 602 616 617 81 1 611
 1580 518 613 616 0 604 618 619 82 1 612 -760676223 14 613 984 611 ?620 606 621
 5 622 +0 0 620 606 21 81 1 616 1470 548 613 0 611 609 623 624 81 1 618 1581 518
 620 623 0 611 625 626 82 1 619 -767229823 14 620 1099 618 ?627 613 628 5 629 -0
 0 627 613 21 81 1 623 1471 548 620 0 618 616 630 631 81 1 625 1582 518 627 630
 0 618 632 633 82 1 626 1078788229 14 627 1103 625 ?634 620 635 5 636 -0 0 634 6
20 21 81 1 630 1472 548 627 0 625 623 637 638 81 1 632 1583 518 634 637 0 625 63
9 640 82 1 633 1078526085 14 634 1107 632 ?641 627 642 5 643 -0 0 641 627 21 81
 1 637 1473 548 634 0 632 630 644 645 81 1 639 1584 518 641 644 0 632 646 647 82
 1 640 1078263941 14 641 1111 639 ?648 634 649 5 650 -0 0 648 634 21 81 1 644 14
74 548 641 0 639 637 651 652 81 1 646 1585 518 648 651 0 639 653 654 82 1 647 10
78001797 14 648 1115 646 ?244 641 655 5 656 +0 0 244 641 21 81 1 651 1475 548 64
8 0 646 644 657 658 81 1 653 1586 518 244 657 0 646 659 660 82 1 654 1071448197
 14 244 1208 653 ?225 648 240 5 661 -0 0 225 648 21 81 1 657 1476 548 244 0 653
 651 662 663 81 1 659 1587 518 225 662 0 653 664 665 82 1 660 1090519173 14 225
 1212 659 ?666 244 221 5 667 -0 0 666 244 21 81 1 662 1477 548 225 0 659 657 668
 669 81 1 664 1588 518 666 668 0 659 670 671 82 1 665 1090257029 14 666 1216 664
 ?672 225 673 5 674 -0 0 672 225 21 81 1 668 1478 548 666 0 664 662 675 676 81 1
 670 1589 518 672 675 0 664 677 678 82 1 671 1089994885 14 672 1220 670 ?237 666
 26 5 679 -0 0 237 666 21 81 1 675 1479 548 672 0 670 668 680 681 81 1 677 1590
 518 237 680 0 670 682 683 82 1 678 1089732741 14 237 1224 677 ?0 672 232 5 684
 +0 0 0 672 21 81 1 680 1480 548 237 0 677 675 0 685 81 1 682 1591 518 686 687 0
 677 688 689 82 1 683 1083179141 14 686 726 682 ?690 691 692 5 693 -0 0 690 691
 21 81 1 687 1458 548 686 0 682 694 695 696 81 1 688 1592 518 690 695 0 682 697
 698 82 1 689 -317390727 14 690 730 688 ?556 686 699 5 700 -0 0 556 686 21 81 1
 695 1459 548 690 0 688 687 559 701 81 1 697 1593 518 556 559 0 688 702 703 82 1
 698 -317259655 14 556 734 697 ?551 690 704 5 705 -0 0 551 690 21 81 1 559 1460
 548 556 0 697 695 552 706 81 1 702 1594 518 691 694 0 697 707 708 82 1 703 -317
128583 14 691 722 702 ?686 709 710 5 711 -0 0 686 709 21 81 1 694 1457 548 691 0
 702 712 687 713 81 1 707 1595 518 714 715 0 702 716 717 82 1 708 -316997511 14
 714 585 707 ?718 719 720 5 721 -0 0 718 719 21 81 1 715 1454 548 714 0 707 722
 723 724 81 1 716 1596 518 718 723 0 707 725 726 82 1 717 1810694261 14 718 589
 716 ?709 714 727 5 728 -0 0 709 714 21 81 1 723 1455 548 718 0 716 715 712 729
 81 1 725 1597 518 709 712 0 716 730 731 82 1 726 1809907829 14 709 593 725 ?691
 718 732 5 733 -0 0 691 718 21 81 1 712 1456 548 709 0 725 723 694 734 81 1 730
 1598 518 719 722 0 725 735 736 82 1 731 1805582453 14 719 581 730 ?714 502 737
 5 738 -0 0 714 502 21 81 1 722 1453 548 719 0 730 739 715 740 81 1 735 1599 518
 513 741 0 730 742 743 82 1 736 1811153013 14 513 401 735 ?502 507 512 5 744 -50
2 502 502 507 21 81 1 741 1451 548 513 0 735 745 739 746 81 1 742 1600 518 502 7
39 0 735 747 748 82 1 743 1606353009 14 502 405 742 ?719 513 501 5 744 -513 513
 719 513 21 81 1 739 1452 548 502 0 742 741 722 749 81 1 747 1601 518 505 750 0
 742 751 752 82 1 748 1605828721 14 505 213 747 ?510 497 503 5 527 -0 0 510 497
 21 81 1 750 1447 548 505 0 747 753 754 755 81 1 751 1602 518 497 753 0 747 0 75
6 82 1 752 -1635843983 14 497 1 751 ?505 476 495 5 536 -0 0 505 476 21 81 1 753
 1446 548 497 0 751 757 750 758 82 1 756 193134705 80 1 548 0 759 8001 0 0 0 0 3
 5 0 0 0 FFFFTFTFFFFFFF2 81 1 757 1445 548 476 0 538 540 753 760 83 255 3 758 .8
98039215686275 .917647058823529 .929411764705882 81 1 538 1568 518 476 757 0 531
 539 761 81 1 540 1444 548 481 0 539 543 757 762 83 3 760 .898039215686275 .9176
47058823529 .929411764705882 83 3 762 .898039215686275 .917647058823529 .9294117
64705882 81 1 531 1567 518 490 549 0 528 538 763 82 1 761 199950449 81 1 549 144
2 548 490 0 531 530 543 764 82 1 763 -752287615 81 1 530 1441 548 15 0 528 0 549
 765 83 3 764 .898039215686275 .917647058823529 .929411764705882 83 3 765 .89803
9215686275 .917647058823529 .929411764705882 79 255 15 759 SDL/TYSA_COLOUR81 1 7
54 1448 548 510 0 524 750 519 766 83 3 755 .898039215686275 .917647058823529 .92
9411764705882 81 1 524 1565 518 510 754 0 520 528 767 81 1 519 1449 548 515 0 51
6 754 745 768 83 3 766 .898039215686275 .917647058823529 .929411764705882 81 1 7
45 1450 548 507 0 520 519 741 769 83 3 768 .898039215686275 .917647058823529 .92
9411764705882 81 1 520 1564 518 507 745 0 516 524 770 83 3 769 .898039215686275
 .917647058823529 .929411764705882 82 1 770 -1642790795 82 1 767 -1636237191 50
 527 237 0 505 517 536 0 +-.0065 -.008 .02 -1 0 0 0 0 1 83 3 749 .89803921568627
5 .917647058823529 .929411764705882 50 744 447 0 513 738 523 0 +-.0085 .01 .002
 0 -.707106781186548 -.707106781186548 0 .707106781186548 -.707106781186548 51 2
55 738 606 0 719 733 744 0 +770371977754894e-48 -.010001 .012 0 1 0 .003 0 0 1 5
0 523 242 0 507 744 526 0 +0 -.008 0 0 -1 0 0 0 -1 50 526 240 0 510 523 517 0 +-
.0065 -.008 .002 0 0 -1 -1 0 0 50 733 607 0 709 728 738 0 +.003 -.010001 .012 1
 0 0 0 0 -1 51 728 608 0 718 721 733 0 +1925929944387235e-49 -.010001 .007 0 1 0
 .003 0 0 1 50 721 609 0 714 711 728 0 +-.003 -.010001 .012 -1 0 0 0 0 1 51 711
 747 0 691 705 721 0 +0 -.003 -1000000000000132e-21 0 0 1 .003 1 0 0 50 705 748
 0 556 700 711 0 +.003 -.003 -1000000000000132e-21 1 0 0 0 0 -1 51 700 749 0 690
 693 705 0 +0 .002 -1000000000000132e-21 0 0 1 .003 1 0 0 50 693 750 0 686 558 7
00 0 +-.003 -.003 -1000000000000132e-21 -1 0 0 0 0 1 51 558 883 0 551 566 693 0
 --.001 -.011 .018 0 1 0 .001 0 0 1 50 566 884 0 555 573 558 0 +-.001 -.011 .017
 0 0 1 1 0 0 51 573 885 0 564 580 566 0 -.001 -.011 .018 0 1 0 .001 0 0 1 50 580
 886 0 571 587 573 0 +-.001 -.011 .019 0 0 -1 -1 0 0 50 587 888 0 578 594 580 0
 +-.001 -.011 .018 0 -1 0 0 0 -1 51 594 992 0 585 601 587 0 --.001 -.011 .002 0
 1 0 .001 0 0 1 50 601 993 0 592 608 594 0 +-.001 -.011 .001 -216840434497101e-3
0 0 1 1 0 216840434497101e-30 51 608 994 0 599 615 601 0 -.001 -.011 .002 0 1 0
 .001 0 0 1 50 615 995 0 606 622 608 0 +-.001 -.011 .003 216840434497101e-30 0 -
1 -1 0 -216840434497101e-30 50 622 997 0 613 629 615 0 +-.001 -.011 .002 0 -1 0
 0 0 -1 51 629 1123 0 620 636 622 0 --.001 -.008 -.001 0 0 1 .001 1 0 0 50 636 1
124 0 627 643 629 0 +-.001 -.007 -.001 0 -1 0 0 0 -1 51 643 1125 0 634 650 636 0
 -.001 -.008 -.001 0 0 1 .001 1 0 0 50 650 1126 0 641 656 643 0 +-.001 -.009 -.0
01 0 1 0 0 0 1 50 656 1128 0 648 661 650 0 +-.001 -.008 -.001 0 0 -1 -1 0 0 51 6
61 1232 0 244 667 656 0 --.001 .008 -.001 0 0 1 .001 1 0 0 50 667 1233 0 225 674
 661 0 +-.001 .009 -.001 0 -1 0 0 0 -1 51 674 1234 0 666 679 667 0 -.001 .008 -.
001 0 0 1 .001 1 0 0 50 679 1235 0 672 684 674 0 +-.001 .007 -.001 0 1 0 0 0 1 5
0 684 1237 0 237 0 679 0 +-.001 .008 -.001 0 0 -1 -1 0 0 83 3 746 .8980392156862
75 .917647058823529 .929411764705882 83 3 740 .898039215686275 .917647058823529
 .929411764705882 15 737 584 0 387 719 0 17 387 0 737 129 138 121 771 385 0 772
 +17 129 0 737 73 387 127 123 400 0 398 +17 138 0 737 387 73 136 408 399 0 410 -
17 771 0 773 774 772 136 387 385 0 0 -17 772 0 773 771 775 121 384 382 0 0 -15 7
73 532 0 772 490 488 17 775 0 773 772 774 124 70 380 0 0 -17 384 0 720 132 123 1
24 772 382 0 775 +15 720 588 0 384 714 0 17 132 0 720 398 384 130 126 403 0 395
 +17 123 0 720 384 398 121 129 400 0 387 -17 398 0 720 123 132 127 776 396 0 777
 +17 776 0 522 778 777 130 398 396 0 0 -17 777 0 522 776 779 127 73 388 0 0 -15
 522 512 0 779 507 506 17 779 0 522 777 778 71 392 390 0 0 -17 73 0 737 138 129
 71 777 388 0 408 +17 408 0 732 392 410 71 138 399 0 779 +15 732 596 0 410 709 0
 17 392 0 732 780 408 133 779 390 0 778 +17 410 0 732 408 780 136 774 402 0 771
 +17 780 0 732 410 392 68 135 405 0 774 -17 774 0 773 775 771 68 410 402 0 0 -17
 135 0 727 395 70 133 780 405 0 392 +15 727 592 0 70 718 0 17 395 0 727 126 135
 130 778 393 0 776 +17 70 0 727 135 126 68 775 380 0 780 +17 126 0 727 70 395 12
4 132 403 0 384 -17 778 0 522 779 776 133 395 393 0 0 -83 3 734 .898039215686275
 .917647058823529 .929411764705882 83 3 729 .898039215686275 .917647058823529 .9
29411764705882 83 3 724 .898039215686275 .917647058823529 .929411764705882 83 3
 713 .898039215686275 .917647058823529 .929411764705882 15 710 725 0 141 691 0 1
7 141 0 710 67 150 139 781 369 0 367 +17 67 0 710 782 141 65 783 357 0 377 +17 1
50 0 710 141 782 148 356 354 0 781 -17 781 0 692 153 367 148 141 369 0 353 -17 3
67 0 692 781 144 139 784 365 0 783 +15 692 729 0 144 686 0 17 144 0 692 367 153
 142 785 372 0 364 +17 784 0 525 786 783 142 367 365 0 0 -17 783 0 525 784 787 1
39 67 357 0 0 -15 525 653 0 787 510 509 17 787 0 525 783 786 65 361 359 0 0 -17
 786 0 525 787 784 145 364 362 0 0 -17 361 0 704 64 377 145 787 359 0 786 +15 70
4 737 0 377 556 0 17 64 0 704 156 361 62 147 374 0 788 -17 377 0 704 361 156 65
 782 368 0 787 +17 156 0 704 377 64 154 379 371 0 782 -17 782 0 710 150 67 154 3
77 368 0 356 -17 356 0 535 379 353 154 150 354 0 0 +15 535 688 0 356 15 484 17 3
79 0 535 350 356 62 156 371 0 0 +17 353 0 535 356 350 148 153 351 0 0 +17 350 0
 535 353 379 151 788 348 0 0 +17 153 0 692 144 781 151 353 351 0 785 -17 785 0 6
99 788 364 151 144 372 0 350 -15 699 733 0 147 690 0 17 788 0 699 147 785 62 350
 348 0 379 -17 364 0 699 785 147 142 786 362 0 784 +17 147 0 699 364 788 145 64
 374 0 361 +83 3 706 .898039215686275 .917647058823529 .929411764705882 83 3 701
 .898039215686275 .917647058823529 .929411764705882 83 3 696 .898039215686275 .9
17647058823529 .929411764705882 83 3 685 .898039215686275 .917647058823529 .9294
11764705882 83 3 681 .898039215686275 .917647058823529 .929411764705882 15 26 12
23 0 27 672 0 17 27 0 26 239 24 203 789 242 0 241 +17 239 0 26 28 27 192 241 790
 0 236 -17 789 0 487 791 245 11 27 242 0 0 -16 242 1184 0 ?27 234 792 793 0 0 1
 17 241 0 240 228 236 203 239 790 0 245 +16 790 1175 0 ?241 30 238 794 0 0 1 17
 245 0 487 789 247 203 228 246 0 0 -15 487 1151 0 247 15 0 17 247 0 487 245 791
 209 208 795 0 0 -16 246 1172 0 ?228 795 0 796 0 0 1 16 795 1176 0 ?208 792 246
 797 0 0 1 31 796 1245 0 246 798 797 0 +-.001 .008 0 0 0 -1 -1 0 0 .001 30 798 1
246 0 238 799 796 0 +-.001 .007 -.001 -1 0 0 30 797 1244 0 795 796 800 0 +-.001
 .009 0 1 0 0 31 800 1243 0 792 797 793 0 +.001 .008 0 0 0 -1 -1 0 0 .001 16 792
 1180 0 ?31 242 795 800 0 0 1 30 793 1242 0 242 800 794 0 +-.001 .007 0 -1 0 0 3
0 794 1241 0 790 793 253 0 +-.001 .007 -.001 0 0 1 30 253 1240 0 30 794 251 0 +.
001 .007 -.001 0 0 1 16 30 1187 0 ?24 230 790 253 0 0 1 17 31 0 673 29 229 11 79
1 792 0 789 +15 673 1219 0 31 666 0 17 29 0 673 231 31 214 24 30 0 28 -17 229 0
 673 31 231 206 222 230 0 791 +17 791 0 487 247 789 206 31 792 0 0 -17 231 0 673
 229 29 217 216 233 0 0 -17 216 0 232 213 219 214 231 233 0 29 +16 233 1194 0 ?2
16 238 223 799 0 0 1 16 238 1197 0 ?213 790 233 798 0 0 1 31 799 1247 0 233 235
 798 0 +.001 .008 -.001 0 0 -1 -1 0 0 .001 30 235 1248 0 223 243 799 0 +-.001 .0
09 -.001 1 0 0 31 243 1249 0 234 0 235 0 +-.001 .008 -.001 0 0 -1 -1 0 0 .001 17
 28 0 26 24 239 214 213 238 0 0 -17 208 0 221 222 211 206 247 795 0 229 +83 3 67
6 .898039215686275 .917647058823529 .929411764705882 83 3 669 .898039215686275 .
917647058823529 .929411764705882 83 3 663 .898039215686275 .917647058823529 .929
411764705882 83 3 658 .898039215686275 .917647058823529 .929411764705882 15 655
 1117 0 256 648 0 17 256 0 655 200 194 191 801 254 0 802 +17 200 0 655 197 256 1
98 202 257 0 803 +17 194 0 655 256 197 177 804 262 0 805 +17 801 0 628 272 802 1
77 256 254 0 0 -17 802 0 628 801 37 191 281 279 0 0 -15 628 1102 0 37 620 0 17 3
7 0 628 802 272 40 32 38 0 0 +17 281 0 635 266 202 40 802 279 0 37 +15 635 1106
 0 266 627 0 17 266 0 635 803 281 188 36 249 0 278 +17 202 0 635 281 803 191 200
 257 0 256 -17 803 0 635 202 266 198 278 276 0 806 -17 278 0 642 269 806 188 803
 276 0 0 +17 806 0 642 278 807 198 197 260 0 0 -15 642 1110 0 269 634 0 17 807 0
 642 806 269 195 275 273 0 804 -17 197 0 655 194 200 195 806 260 0 807 +17 269 0
 642 807 278 33 190 267 0 275 +17 275 0 649 39 804 33 807 273 0 0 +17 804 0 649
 275 805 195 194 262 0 0 -15 649 1114 0 39 641 0 17 805 0 649 804 39 177 272 263
 0 801 -17 39 0 649 805 275 25 35 258 0 272 +17 272 0 628 37 801 25 805 263 0 0
 +17 35 0 34 190 32 33 39 258 0 269 -17 190 0 34 36 35 188 269 267 0 266 -17 36
 0 34 32 190 40 266 249 0 281 -83 3 652 .898039215686275 .917647058823529 .92941
1764705882 83 3 645 .898039215686275 .917647058823529 .929411764705882 83 3 638
 .898039215686275 .917647058823529 .929411764705882 83 3 631 .898039215686275 .9
17647058823529 .929411764705882 83 3 624 .898039215686275 .917647058823529 .9294
11764705882 15 621 986 0 285 613 0 17 285 0 621 185 179 176 808 283 0 809 +17 18
5 0 621 182 285 183 187 286 0 810 +17 179 0 621 285 182 162 811 291 0 812 +17 80
8 0 593 305 809 162 285 283 0 0 -17 809 0 593 808 295 176 314 312 0 0 -15 593 97
1 0 295 585 0 17 295 0 593 809 305 44 175 282 0 0 +17 314 0 600 298 187 44 809 3
12 0 295 +15 600 975 0 298 592 0 17 298 0 600 810 314 47 46 296 0 311 +17 187 0
 600 314 810 176 185 286 0 285 -17 810 0 600 187 298 183 311 309 0 813 -17 311 0
 607 301 813 47 810 309 0 0 +17 813 0 607 311 814 183 182 289 0 0 -15 607 979 0
 301 599 0 17 814 0 607 813 301 180 308 306 0 811 -17 182 0 621 179 185 180 813
 289 0 814 +17 301 0 607 814 311 50 49 299 0 308 +17 308 0 614 303 811 50 814 30
6 0 0 +17 811 0 614 308 812 180 179 291 0 0 -15 614 983 0 303 606 0 17 812 0 614
 811 303 162 305 293 0 808 -17 303 0 614 812 308 173 52 287 0 305 +17 305 0 593
 295 808 173 812 293 0 0 +17 52 0 491 49 175 50 303 287 0 301 -15 491 926 0 175
 490 0 17 49 0 491 46 52 47 301 299 0 298 -17 175 0 491 52 46 173 295 282 0 303
 -17 46 0 491 175 49 44 298 296 0 314 -83 3 617 .898039215686275 .91764705882352
9 .929411764705882 83 3 610 .898039215686275 .917647058823529 .929411764705882 8
3 3 603 .898039215686275 .917647058823529 .929411764705882 83 3 596 .89803921568
6275 .917647058823529 .929411764705882 83 3 589 .898039215686275 .91764705882352
9 .929411764705882 15 586 877 0 318 578 0 17 318 0 586 170 164 161 815 316 0 816
 +17 170 0 586 167 318 168 172 319 0 817 +17 164 0 586 318 167 157 818 324 0 819
 +17 815 0 557 338 816 157 318 316 0 0 -17 816 0 557 815 328 161 347 345 0 0 -15
 557 862 0 328 551 0 17 328 0 557 816 338 53 160 315 0 0 +17 347 0 565 331 172 5
3 816 345 0 328 +15 565 866 0 331 555 0 17 331 0 565 817 347 56 55 329 0 344 +17
 172 0 565 347 817 161 170 319 0 318 -17 817 0 565 172 331 168 344 342 0 820 -17
 344 0 572 334 820 56 817 342 0 0 +17 820 0 572 344 821 168 167 322 0 0 -15 572
 870 0 334 564 0 17 821 0 572 820 334 165 341 339 0 818 -17 167 0 586 164 170 16
5 820 322 0 821 +17 334 0 572 821 344 59 58 332 0 341 +17 341 0 579 336 818 59 8
21 339 0 0 +17 818 0 579 341 819 165 164 324 0 0 -15 579 874 0 336 571 0 17 819
 0 579 818 336 157 338 326 0 815 -17 336 0 579 819 341 158 61 320 0 338 +17 338
 0 557 328 815 158 819 326 0 0 +17 61 0 533 58 160 59 336 320 0 334 -15 533 817
 0 160 490 773 17 58 0 533 55 61 56 334 332 0 331 -17 160 0 533 61 55 158 328 31
5 0 336 -17 55 0 533 160 58 53 331 329 0 347 -83 3 582 .898039215686275 .9176470
58823529 .929411764705882 83 3 575 .898039215686275 .917647058823529 .9294117647
05882 83 3 568 .898039215686275 .917647058823529 .929411764705882 83 3 561 .8980
39215686275 .917647058823529 .929411764705882 83 3 550 .898039215686275 .9176470
58823529 .929411764705882 79 14 547 SWEntUnchanged82 1 542 200212593 82 1 532 10
97924741 82 1 521 -1636106127 17 111 0 512 105 114 109 496 414 0 429 +16 414 353
 0 ?111 420 411 416 420 420 1 19 16 95 0 1 0 9 5 S0 74 4 CI16 index_map_offset0
 0 1 dCCZ20 14 3 0 0 751 2 680 0 0 0 0 0 0 0 0 0 0 0 0 0 0 0 0 0 80 2 12 822 823
 8004 0 0 0 0 3 5 0 0 0 FFTFFFFFFFFFFF2 3 83 1 13 27e2 79 16 823 SDL/TYSA_DENSIT
Y1 0 
